<svg xmlns="http://www.w3.org/2000/svg" width="188" height="187" fill="none" viewBox="0 0 188 187"><g opacity=".6"><g filter="url(#filter0_f_1059_5112)" opacity=".6"><path fill="url(#paint0_linear_1059_5112)" d="M140.311 62.9138L66.3084 81.1109L106.38 145.932L113.893 158.091L154.19 59.4983L140.311 62.9138ZM76.8086 85.4025L120.953 74.5387L100.706 124.076L76.8086 85.4025Z"/><path fill="url(#paint1_linear_1059_5112)" d="M55.6077 76.7368L103.191 153.734L143.494 55.1263L55.6077 76.7368ZM100.717 124.08L76.8194 85.4064L120.964 74.5425L100.717 124.08Z"/><path fill="url(#paint2_linear_1059_5112)" d="M143.488 55.1239L103.191 153.716L113.887 158.088L154.184 59.4956L143.488 55.1239Z"/><path fill="url(#paint3_linear_1059_5112)" d="M120.962 74.5428L116.83 84.6517L90.6939 91.0781L104.847 113.972L100.715 124.08L76.807 85.4024L120.962 74.5428Z"/><path fill="url(#paint4_linear_1059_5112)" d="M90.6939 91.0781L76.807 85.4023L100.715 124.08L104.847 113.972L90.6939 91.0781Z"/><g style="mix-blend-mode:color"><path fill="url(#paint5_linear_1059_5112)" d="M55.6077 76.7368L103.191 153.734L143.494 55.1263L55.6077 76.7368ZM100.717 124.08L76.8194 85.4064L120.964 74.5425L100.717 124.08Z"/><path fill="url(#paint6_linear_1059_5112)" d="M143.488 55.1239L103.191 153.716L113.887 158.088L154.184 59.4956L143.488 55.1239Z"/><path fill="url(#paint7_linear_1059_5112)" d="M120.964 74.5422L116.832 84.6511L90.6954 91.0776L76.8086 85.4018L120.964 74.5422Z"/><path fill="url(#paint8_linear_1059_5112)" d="M76.811 85.402L90.6978 91.0778L104.851 113.971L100.719 124.08L76.811 85.402Z"/><path fill="url(#paint9_linear_1059_5112)" d="M76.811 85.402L90.6978 91.0778L104.851 113.971L100.719 124.08L76.811 85.402Z"/></g><path style="mix-blend-mode:color-dodge" fill="url(#paint10_radial_1059_5112)" d="M80.6533 111.634C67.8043 91.5226 56.4681 75.8027 55.3332 76.5225C54.1983 77.2423 63.6945 94.1292 76.5434 114.24C89.3924 134.352 100.729 150.072 101.864 149.352C102.998 148.632 93.5023 131.745 80.6533 111.634Z" opacity=".32"/><path style="mix-blend-mode:color-dodge" fill="url(#paint11_radial_1059_5112)" d="M123.927 106.178C112.744 133.289 103.178 155.06 102.564 154.81C101.951 154.559 110.529 132.378 121.707 105.264C132.885 78.151 142.451 56.3795 143.065 56.6302C143.678 56.881 135.11 79.0663 123.927 106.178Z" opacity=".71"/></g><path fill="url(#paint12_linear_1059_5112)" d="M140.311 62.9138L66.3084 81.1109L106.38 145.932L113.893 158.091L154.19 59.4983L140.311 62.9138ZM76.8086 85.4025L120.953 74.5387L100.706 124.076L76.8086 85.4025Z"/><path fill="url(#paint13_linear_1059_5112)" d="M55.6077 76.7368L103.191 153.734L143.494 55.1263L55.6077 76.7368ZM100.717 124.08L76.8194 85.4064L120.964 74.5425L100.717 124.08Z"/><path fill="url(#paint14_linear_1059_5112)" d="M143.488 55.1239L103.191 153.716L113.887 158.088L154.184 59.4956L143.488 55.1239Z"/><path fill="url(#paint15_linear_1059_5112)" d="M120.962 74.5428L116.83 84.6517L90.6939 91.0781L104.847 113.972L100.715 124.08L76.807 85.4024L120.962 74.5428Z"/><path fill="url(#paint16_linear_1059_5112)" d="M90.6939 91.0781L76.807 85.4023L100.715 124.08L104.847 113.972L90.6939 91.0781Z"/><g style="mix-blend-mode:color"><path fill="url(#paint17_linear_1059_5112)" d="M55.6077 76.7368L103.191 153.734L143.494 55.1263L55.6077 76.7368ZM100.717 124.08L76.8194 85.4064L120.964 74.5425L100.717 124.08Z"/><path fill="url(#paint18_linear_1059_5112)" d="M143.488 55.1239L103.191 153.716L113.887 158.088L154.184 59.4956L143.488 55.1239Z"/><path fill="url(#paint19_linear_1059_5112)" d="M120.964 74.5422L116.832 84.6511L90.6954 91.0776L76.8086 85.4018L120.964 74.5422Z"/><path fill="url(#paint20_linear_1059_5112)" d="M76.811 85.402L90.6978 91.0778L104.851 113.971L100.719 124.08L76.811 85.402Z"/><path fill="url(#paint21_linear_1059_5112)" d="M76.811 85.402L90.6978 91.0778L104.851 113.971L100.719 124.08L76.811 85.402Z"/></g><path style="mix-blend-mode:color-dodge" fill="url(#paint22_radial_1059_5112)" d="M80.6533 111.634C67.8043 91.5226 56.4681 75.8027 55.3332 76.5225C54.1983 77.2423 63.6945 94.1292 76.5434 114.24C89.3924 134.352 100.729 150.072 101.864 149.352C102.998 148.632 93.5023 131.745 80.6533 111.634Z" opacity=".32"/><path style="mix-blend-mode:color-dodge" fill="url(#paint23_radial_1059_5112)" d="M123.927 106.178C112.744 133.289 103.178 155.06 102.564 154.81C101.951 154.559 110.529 132.378 121.707 105.264C132.885 78.151 142.451 56.3795 143.065 56.6302C143.678 56.881 135.11 79.0663 123.927 106.178Z" opacity=".71"/></g><defs><filter id="filter0_f_1059_5112" width="146.949" height="150.967" x="31.242" y="31.124" color-interpolation-filters="sRGB" filterUnits="userSpaceOnUse"><feFlood flood-opacity="0" result="BackgroundImageFix"/><feBlend in="SourceGraphic" in2="BackgroundImageFix" mode="normal" result="shape"/><feGaussianBlur result="effect1_foregroundBlur_1059_5112" stdDeviation="12"/></filter><linearGradient id="paint0_linear_1059_5112" x1="80.027" x2="120.323" y1="144.249" y2="45.657" gradientUnits="userSpaceOnUse"><stop offset=".01" stop-color="#F48484"/><stop offset=".34" stop-color="#CC6986"/><stop offset=".44" stop-color="#CD6D89"/><stop offset=".55" stop-color="#D27A94"/><stop offset=".66" stop-color="#D98FA5"/><stop offset=".77" stop-color="#E3ACBC"/><stop offset=".89" stop-color="#F0D2DA"/><stop offset="1" stop-color="#fff"/></linearGradient><linearGradient id="paint1_linear_1059_5112" x1="69.326" x2="109.622" y1="139.875" y2="41.282" gradientUnits="userSpaceOnUse"><stop offset=".01" stop-color="#F48484"/><stop offset=".34" stop-color="#CC6986"/><stop offset=".44" stop-color="#CD6D89"/><stop offset=".55" stop-color="#D27A94"/><stop offset=".66" stop-color="#D98FA5"/><stop offset=".77" stop-color="#E3ACBC"/><stop offset=".89" stop-color="#F0D2DA"/><stop offset="1" stop-color="#fff"/></linearGradient><linearGradient id="paint2_linear_1059_5112" x1="173.164" x2="104.422" y1="46.571" y2="139.692" gradientUnits="userSpaceOnUse"><stop offset=".01" stop-color="#F48484"/><stop offset="1" stop-color="#CC6986"/></linearGradient><linearGradient id="paint3_linear_1059_5112" x1="83.699" x2="103.946" y1="117.126" y2="67.588" gradientUnits="userSpaceOnUse"><stop offset=".01" stop-color="#F48484"/><stop offset="1" stop-color="#CC6986"/></linearGradient><linearGradient id="paint4_linear_1059_5112" x1="83.699" x2="93.823" y1="117.126" y2="92.357" gradientUnits="userSpaceOnUse"><stop offset=".01" stop-color="#F48484"/><stop offset="1" stop-color="#CC6986"/></linearGradient><linearGradient id="paint5_linear_1059_5112" x1="101.592" x2="96.253" y1="148.61" y2="68.879" gradientUnits="userSpaceOnUse"><stop stop-color="#3AEDB1"/><stop offset="1" stop-color="#0047FF"/></linearGradient><linearGradient id="paint6_linear_1059_5112" x1="160.266" x2="97.257" y1="63.984" y2="149.336" gradientUnits="userSpaceOnUse"><stop stop-color="#3AEDB1"/><stop offset="1" stop-color="#245CEC"/></linearGradient><linearGradient id="paint7_linear_1059_5112" x1="83.701" x2="103.948" y1="117.125" y2="67.588" gradientUnits="userSpaceOnUse"><stop stop-color="#09FDAB"/><stop offset="1" stop-color="#0038FF"/></linearGradient><linearGradient id="paint8_linear_1059_5112" x1="83.703" x2="103.95" y1="117.125" y2="67.588" gradientUnits="userSpaceOnUse"><stop stop-color="#3AEDB1"/><stop offset="1" stop-color="#245CEC"/></linearGradient><linearGradient id="paint9_linear_1059_5112" x1="83.703" x2="93.827" y1="117.125" y2="92.357" gradientUnits="userSpaceOnUse"><stop stop-color="#05EC9E"/><stop offset="1" stop-color="#06F"/></linearGradient><radialGradient id="paint10_radial_1059_5112" cx="0" cy="0" r="1" gradientTransform="translate(78.9163 113.309) rotate(-32.3843) scale(2.4747 43.3578)" gradientUnits="userSpaceOnUse"><stop stop-color="#BCBEC0"/><stop offset=".04" stop-color="#9B9D9E"/><stop offset=".09" stop-color="#777879"/><stop offset=".15" stop-color="#565758"/><stop offset=".22" stop-color="#3B3C3D"/><stop offset=".29" stop-color="#252626"/><stop offset=".38" stop-color="#151515"/><stop offset=".48" stop-color="#090909"/><stop offset=".62" stop-color="#020202"/><stop offset=".99"/></radialGradient><radialGradient id="paint11_radial_1059_5112" cx="0" cy="0" r="1" gradientTransform="translate(123.956 106.283) rotate(22.2307) scale(1.24214 53.2247)" gradientUnits="userSpaceOnUse"><stop stop-color="#BCBEC0"/><stop offset=".04" stop-color="#9B9D9E"/><stop offset=".09" stop-color="#777879"/><stop offset=".15" stop-color="#565758"/><stop offset=".22" stop-color="#3B3C3D"/><stop offset=".29" stop-color="#252626"/><stop offset=".38" stop-color="#151515"/><stop offset=".48" stop-color="#090909"/><stop offset=".62" stop-color="#020202"/><stop offset=".99"/></radialGradient><linearGradient id="paint12_linear_1059_5112" x1="80.027" x2="120.323" y1="144.249" y2="45.657" gradientUnits="userSpaceOnUse"><stop offset=".01" stop-color="#F48484"/><stop offset=".34" stop-color="#CC6986"/><stop offset=".44" stop-color="#CD6D89"/><stop offset=".55" stop-color="#D27A94"/><stop offset=".66" stop-color="#D98FA5"/><stop offset=".77" stop-color="#E3ACBC"/><stop offset=".89" stop-color="#F0D2DA"/><stop offset="1" stop-color="#fff"/></linearGradient><linearGradient id="paint13_linear_1059_5112" x1="69.326" x2="109.622" y1="139.875" y2="41.282" gradientUnits="userSpaceOnUse"><stop offset=".01" stop-color="#F48484"/><stop offset=".34" stop-color="#CC6986"/><stop offset=".44" stop-color="#CD6D89"/><stop offset=".55" stop-color="#D27A94"/><stop offset=".66" stop-color="#D98FA5"/><stop offset=".77" stop-color="#E3ACBC"/><stop offset=".89" stop-color="#F0D2DA"/><stop offset="1" stop-color="#fff"/></linearGradient><linearGradient id="paint14_linear_1059_5112" x1="173.164" x2="104.422" y1="46.571" y2="139.692" gradientUnits="userSpaceOnUse"><stop offset=".01" stop-color="#F48484"/><stop offset="1" stop-color="#CC6986"/></linearGradient><linearGradient id="paint15_linear_1059_5112" x1="83.699" x2="103.946" y1="117.126" y2="67.588" gradientUnits="userSpaceOnUse"><stop offset=".01" stop-color="#F48484"/><stop offset="1" stop-color="#CC6986"/></linearGradient><linearGradient id="paint16_linear_1059_5112" x1="83.699" x2="93.823" y1="117.126" y2="92.357" gradientUnits="userSpaceOnUse"><stop offset=".01" stop-color="#F48484"/><stop offset="1" stop-color="#CC6986"/></linearGradient><linearGradient id="paint17_linear_1059_5112" x1="101.592" x2="96.253" y1="148.61" y2="68.879" gradientUnits="userSpaceOnUse"><stop stop-color="#3AEDB1"/><stop offset="1" stop-color="#0047FF"/></linearGradient><linearGradient id="paint18_linear_1059_5112" x1="160.266" x2="97.257" y1="63.984" y2="149.336" gradientUnits="userSpaceOnUse"><stop stop-color="#3AEDB1"/><stop offset="1" stop-color="#245CEC"/></linearGradient><linearGradient id="paint19_linear_1059_5112" x1="83.701" x2="103.948" y1="117.125" y2="67.588" gradientUnits="userSpaceOnUse"><stop stop-color="#09FDAB"/><stop offset="1" stop-color="#0038FF"/></linearGradient><linearGradient id="paint20_linear_1059_5112" x1="83.703" x2="103.95" y1="117.125" y2="67.588" gradientUnits="userSpaceOnUse"><stop stop-color="#3AEDB1"/><stop offset="1" stop-color="#245CEC"/></linearGradient><linearGradient id="paint21_linear_1059_5112" x1="83.703" x2="93.827" y1="117.125" y2="92.357" gradientUnits="userSpaceOnUse"><stop stop-color="#05EC9E"/><stop offset="1" stop-color="#06F"/></linearGradient><radialGradient id="paint22_radial_1059_5112" cx="0" cy="0" r="1" gradientTransform="translate(78.9163 113.309) rotate(-32.3843) scale(2.4747 43.3578)" gradientUnits="userSpaceOnUse"><stop stop-color="#BCBEC0"/><stop offset=".04" stop-color="#9B9D9E"/><stop offset=".09" stop-color="#777879"/><stop offset=".15" stop-color="#565758"/><stop offset=".22" stop-color="#3B3C3D"/><stop offset=".29" stop-color="#252626"/><stop offset=".38" stop-color="#151515"/><stop offset=".48" stop-color="#090909"/><stop offset=".62" stop-color="#020202"/><stop offset=".99"/></radialGradient><radialGradient id="paint23_radial_1059_5112" cx="0" cy="0" r="1" gradientTransform="translate(123.956 106.283) rotate(22.2307) scale(1.24214 53.2247)" gradientUnits="userSpaceOnUse"><stop stop-color="#BCBEC0"/><stop offset=".04" stop-color="#9B9D9E"/><stop offset=".09" stop-color="#777879"/><stop offset=".15" stop-color="#565758"/><stop offset=".22" stop-color="#3B3C3D"/><stop offset=".29" stop-color="#252626"/><stop offset=".38" stop-color="#151515"/><stop offset=".48" stop-color="#090909"/><stop offset=".62" stop-color="#020202"/><stop offset=".99"/></radialGradient></defs></svg>