<svg xmlns="http://www.w3.org/2000/svg" width="37" height="37" fill="none" viewBox="0 0 37 37"><path stroke="#3AEDB1" stroke-linecap="round" stroke-linejoin="round" stroke-miterlimit="10" stroke-width="2" d="M12.3335 18.8083H23.1252"/><path stroke="#3AEDB1" stroke-linecap="round" stroke-linejoin="round" stroke-miterlimit="10" stroke-width="2" d="M12.3335 24.9749H19.086"/><path stroke="#fff" stroke-linecap="round" stroke-linejoin="round" stroke-miterlimit="10" stroke-width="2" d="M15.4168 9.24998H21.5835C24.6668 9.24998 24.6668 7.70831 24.6668 6.16665C24.6668 3.08331 23.1252 3.08331 21.5835 3.08331H15.4168C13.8752 3.08331 12.3335 3.08331 12.3335 6.16665C12.3335 9.24998 13.8752 9.24998 15.4168 9.24998Z"/><path stroke="#3AEDB1" stroke-linecap="round" stroke-linejoin="round" stroke-miterlimit="10" stroke-width="2" d="M24.6667 6.19751C29.8004 6.47501 32.375 8.37126 32.375 15.4167V24.6667C32.375 30.8333 30.8333 33.9167 23.125 33.9167H13.875C6.16667 33.9167 4.625 30.8333 4.625 24.6667V15.4167C4.625 8.38668 7.19958 6.47501 12.3333 6.19751"/></svg>